<svg xmlns="http://www.w3.org/2000/svg" viewBox="0 0 2309.48 1796.95"><title>Asset 1</title><g id="Layer_2" data-name="Layer 2"><g id="Layer_1-2" data-name="Layer 1"><path d="M443.28,748.44C332.09,698.8,237.15,632.07,155,544c158.94,30,313.45,2,468.94-28.89C357.21,406.74,129.37,255.69,0,2.43,152.5,160.14,360,253.14,583.5,293.62,488.43,197.63,453.09,130.89,415.64,0c20.25,21.33,65.6,84,85.88,105.33C587.74,195.87,602.73,216.94,714.6,273c115.2,57.77,259.44,55.7,388.71,47.27,31.72-2.08,63.3-6.45,95-8.29,7.4-.43,16.86,3.25,22.46,8.29,30,27,60.75,53.45,87.86,83.18,16.08,17.63,34,23.51,55.36,23.3,34.14-.33,57.84-7.62,91.93-9.53,32.74-1.84,37.27,3.24,72.92-27.55,16.2-37.27,33.29-34.56,60-36.46,34-2.43,41.83,17.72,57.53,38.08,38.28,49.64,26.84,57.51,31,118.37,4.09,60.45-37.87,91.91-71.2,129.77l33.82-61.69c-24.68-3.23-46.23-6.91-67.94-8.67-21.18-1.72-33.92,10.61-42.7,28.85-12.5,26-25.8,51.57-42.68,75.67-2.85-30.36-5.7-60.72-8.81-93.81-78.13,20.87-158.65,31.07-213.5,99.24-10,12.47-12,23.76-4.2,35.77,40,62,89.27,113.48,162.4,135.58,5.34,1.61,15.13-3.87,19.7-8.92,11.76-13,21.75-27.57,35.06-44.93.57,7.56,1.3,9.86.82,11.88-10.65,44.87,13.56,71.94,59.34,64.6,5.84-.93,12.68-10,14.87-16.67,8.83-26.83,28.75-42.26,52.53-55.56-17.55,45.76-8.72,92.91-11.79,139.15-.49,7.33-5.76,16.07-11.5,21.07-51.89,45.12-113.3,74.43-176.85,102.34l47.9-69.84c-74-23.3-142.52-47.29-212.49-65.85-33.08-8.78-69-10.26-103.48-9.61-67.3,1.28-129.06,24.54-187.62,56.43-83.45,45.46-151.68,110-218.93,175.73-2.68,2.62-4,6.66-5.9,10l-9-5.33c11.22-28.33,19.32-58.42,34.22-84.66,48.82-86,110.53-162.79,176.23-236.42,10.64-11.93,20.74-24.33,31.09-36.51l-3.36-6.48C907.19,802.37,860.81,813,815,825.56,737.2,846.89,664.07,878,602.23,931.61c-65.52,56.81-105.13,128.78-126.89,212-28.87,110.41-22.8,218.83,9.75,327.82,35.59,119.17,96.68,222.7,179.39,314.45,1.51,1.67,2.36,3.92.59,11.06-28.82-16.49-60.45-29.54-85.88-50.2-49.73-40.41-98.12-83-143.2-128.49-62-62.61-106.12-137.29-129.48-222.81-22.17-81.14-22.13-161,21.16-236.5,6.44-11.24,14.75-21.42,22.2-32.09-1.27-1.6-95.32,64.19-140.08,97.92C176.1,1075.85,226.74,857.56,443.28,748.44ZM1278.6,470.5c-46.66-4.85-87.07-12.65-127.39-12.25-43.25.42-86.32,7.51-129.69-18.4C1089.42,532,1165.41,541.5,1278.6,470.5Z"/><path d="M1620.82,744.22c25.84-4.93,51.77-9.51,77.52-14.87,68.26-14.19,124.75-46.22,151.78-113.61,31.17-77.73,89.88-106,168.92-104,10.75.28,21.74-1.23,32.34-3.34,47.95-9.54,69-44.14,55.33-91.18-3.82-13.13-9.55-25.69-14.43-38.6,32.54,12,60.4,70.1,59.82,102.71-.72,40.31-15.41,72.49-52.3,92.1-16.44,8.74-32.89,17.49-49.6,25.71-35.68,17.53-39,53.48-6.95,77.91,31.24,23.82,82.75,17.29,114.17-15.3,4.57-4.74,5.75-12.75,8.5-19.25l9.77,8.53c-2.67,40.33-20,74.75-45.46,105.79-84.3,102.57-223.49,106.53-317.65,56.67C1752,781.4,1690.34,751.73,1620.82,744.22Z"/><path d="M591.45,1081.62S501.52,1349,657.08,1531.29s277.9,182.29,533.11,149.07C1190.19,1680.36,617.38,1636.61,591.45,1081.62Z"/><path d="M904.19,1122.94S755.11,1383.83,1076,1536.15C1076,1536.15,679.76,1421.1,904.19,1122.94Z"/><path d="M2133.27,162.85s-25.93,69.68,20.25,102.9,29.17,93.17,22.69,112.62c0,0,44.56-22.69,47.8-51.05s6.48-59.14-38.08-89.93S2138.13,190.4,2133.27,162.85Z"/><path d="M2244.13,393.76s34.28,106.49-37.94,155.45c0,0,45.76,33,77.35,0S2309,481.89,2309,481.89s-15.92,51.41-40.4,47.74S2293.09,429.26,2244.13,393.76Z"/></g></g></svg>